<svg id="visual" viewBox="0 0 960 300" width="960" height="300" xmlns="http://www.w3.org/2000/svg" xmlns:xlink="http://www.w3.org/1999/xlink" version="1.1"><rect x="0" y="0" width="960" height="300" fill="#202731"></rect><path d="M0 183L22.8 183.2C45.7 183.3 91.3 183.7 137 186.7C182.7 189.7 228.3 195.3 274 198.3C319.7 201.3 365.3 201.7 411.2 197.5C457 193.3 503 184.7 548.8 186.2C594.7 187.7 640.3 199.3 686 205.5C731.7 211.7 777.3 212.3 823 214.5C868.7 216.7 914.3 220.3 937.2 222.2L960 224L960 0L937.2 0C914.3 0 868.7 0 823 0C777.3 0 731.7 0 686 0C640.3 0 594.7 0 548.8 0C503 0 457 0 411.2 0C365.3 0 319.7 0 274 0C228.3 0 182.7 0 137 0C91.3 0 45.7 0 22.8 0L0 0Z" fill="#c62368"></path><path d="M0 163L22.8 161.5C45.7 160 91.3 157 137 163C182.7 169 228.3 184 274 189C319.7 194 365.3 189 411.2 182.7C457 176.3 503 168.7 548.8 160C594.7 151.3 640.3 141.7 686 136.5C731.7 131.3 777.3 130.7 823 139.2C868.7 147.7 914.3 165.3 937.2 174.2L960 183L960 0L937.2 0C914.3 0 868.7 0 823 0C777.3 0 731.7 0 686 0C640.3 0 594.7 0 548.8 0C503 0 457 0 411.2 0C365.3 0 319.7 0 274 0C228.3 0 182.7 0 137 0C91.3 0 45.7 0 22.8 0L0 0Z" fill="#d53867"></path><path d="M0 126L22.8 125.5C45.7 125 91.3 124 137 124.3C182.7 124.7 228.3 126.3 274 129.5C319.7 132.7 365.3 137.3 411.2 138.3C457 139.3 503 136.7 548.8 133.5C594.7 130.3 640.3 126.7 686 121.2C731.7 115.7 777.3 108.3 823 103.8C868.7 99.3 914.3 97.7 937.2 96.8L960 96L960 0L937.2 0C914.3 0 868.7 0 823 0C777.3 0 731.7 0 686 0C640.3 0 594.7 0 548.8 0C503 0 457 0 411.2 0C365.3 0 319.7 0 274 0C228.3 0 182.7 0 137 0C91.3 0 45.7 0 22.8 0L0 0Z" fill="#e34c67"></path><path d="M0 105L22.8 98C45.7 91 91.3 77 137 78.7C182.7 80.3 228.3 97.7 274 97.5C319.7 97.3 365.3 79.7 411.2 79.3C457 79 503 96 548.8 99.8C594.7 103.7 640.3 94.3 686 89.5C731.7 84.7 777.3 84.3 823 79.7C868.7 75 914.3 66 937.2 61.5L960 57L960 0L937.2 0C914.3 0 868.7 0 823 0C777.3 0 731.7 0 686 0C640.3 0 594.7 0 548.8 0C503 0 457 0 411.2 0C365.3 0 319.7 0 274 0C228.3 0 182.7 0 137 0C91.3 0 45.7 0 22.8 0L0 0Z" fill="#ef5f67"></path><path d="M0 69L22.8 62.5C45.7 56 91.3 43 137 36C182.7 29 228.3 28 274 28.2C319.7 28.3 365.3 29.7 411.2 34.7C457 39.7 503 48.3 548.8 53.7C594.7 59 640.3 61 686 57.8C731.7 54.7 777.3 46.3 823 43.7C868.7 41 914.3 44 937.2 45.5L960 47L960 0L937.2 0C914.3 0 868.7 0 823 0C777.3 0 731.7 0 686 0C640.3 0 594.7 0 548.8 0C503 0 457 0 411.2 0C365.3 0 319.7 0 274 0C228.3 0 182.7 0 137 0C91.3 0 45.7 0 22.8 0L0 0Z" fill="#fa7268"></path></svg>